<?xml version="1.0" encoding="utf-8"?>
<!-- Generator: Adobe Illustrator 26.5.0, SVG Export Plug-In . SVG Version: 6.00 Build 0)  -->
<svg version="1.1" id="Layer_1" xmlns="http://www.w3.org/2000/svg" xmlns:xlink="http://www.w3.org/1999/xlink" x="0px" y="0px"
	 viewBox="0 0 349.2 43" style="enable-background:new 0 0 349.2 43;" xml:space="preserve">
<style type="text/css">
	.st0{fill-rule:evenodd;clip-rule:evenodd;fill:#1D1D1B;}
	.st1{fill:#1D1D1B;}
	.st2{fill:#0093C6;}
	.st3{clip-path:url(#SVGID_00000008835029075087228530000015218279412606754721_);fill:#000309;}
	.st4{clip-path:url(#SVGID_00000175286143389850387370000009657301272634837660_);fill:#FFFFFF;}
	.st5{clip-path:url(#SVGID_00000099623244550167048720000017685306001899053708_);fill:#FFFFFF;}
	.st6{clip-path:url(#SVGID_00000044860978287359459030000013817201953844535457_);fill:#FFFFFF;}
	.st7{clip-path:url(#SVGID_00000177471450474256941610000006645851335282726568_);fill:#FFFFFF;}
	.st8{clip-path:url(#SVGID_00000144320434701208221630000012554998423144998316_);fill:#FFFFFF;}
	.st9{clip-path:url(#SVGID_00000112595345938072198090000014510729132442786182_);fill:#FFFFFF;}
	.st10{clip-path:url(#SVGID_00000029009682968097942700000013909853193892094143_);fill:#FFFFFF;}
	.st11{clip-path:url(#SVGID_00000011017786313148865630000002340875322315752850_);fill:#FFFFFF;}
	.st12{clip-path:url(#SVGID_00000040569554045030685170000017566415343459622591_);fill:#FFFFFF;}
	.st13{clip-path:url(#SVGID_00000172419266311788716580000011630789806643338684_);fill:#FFFFFF;}
	.st14{clip-path:url(#SVGID_00000006668999551109404110000013194314751662007228_);fill:#FFFFFF;}
	.st15{clip-path:url(#SVGID_00000135650484417311536410000009899027649195664280_);fill:#FFFFFF;}
	.st16{clip-path:url(#SVGID_00000141425833562570395730000000357056666260427177_);fill:#FFFFFF;}
	.st17{clip-path:url(#SVGID_00000143608968301100735840000008995973332785751471_);fill:#FFFFFF;}
	.st18{clip-path:url(#SVGID_00000017501962070804570230000007412036228751923084_);fill:#FFFFFF;}
	.st19{clip-path:url(#SVGID_00000116923674929399306270000001755828953735949443_);fill:#FFFFFF;}
	.st20{clip-path:url(#SVGID_00000051374598052236053540000002446239607848096898_);fill:#FFFFFF;}
	.st21{clip-path:url(#SVGID_00000043445748974644468930000012150473394641232822_);fill:#FFFFFF;}
	.st22{clip-path:url(#SVGID_00000059302394972891691580000005655265533329674933_);fill:#FFFFFF;}
	.st23{clip-path:url(#SVGID_00000122699931526059472500000002990713309907877514_);fill:#FFFFFF;}
	.st24{fill:#231F20;}
</style>
<g>
	<path class="st0" d="M245.8,29.8c-2.3-2-9.1-7.6-12.3-7.6c-3.3,0-10,5.6-12.3,7.6c0-0.5,0-0.7,0-1.1c0,0,0-0.7,0.5-1.3
		c4.9-4.4,10.1-6.7,10.3-6.7c1.6-0.7,1.4-0.5,1.4-3.1h0.2c2.2,0.2,8,5.8,11.6,9.8c0,0,0.7,0.7,0.7,1.6
		C245.9,29.1,245.9,29.5,245.8,29.8z M245.8,26.5c-0.4-0.4-9.1-10-12.2-10s-11.8,9.6-12.2,10l0,0c0,0-0.9,1.1-0.9,2.1
		c0,0.9,0,1.8,0,1.8s0,0.4,0.2,0.5h0.2c0.2,0,0.2,0,0.2-0.2c0.2-0.2,9-7.9,12.5-7.9c3.5,0,12.3,7.8,12.5,7.9
		c0.2,0.2,0.2,0.2,0.2,0.2h0.2c0.2-0.2,0.2-0.5,0.2-0.5s0-0.9,0-1.8C246.7,27.6,245.8,26.7,245.8,26.5z"/>
	<path class="st0" d="M245.8,20.7c-2.3-2-9.1-7.6-12.3-7.6c-3.3,0-10,5.6-12.3,7.6c0-0.5,0-0.7,0-1.1c0,0,0-0.7,0.5-1.3
		c4.9-4.4,10.1-6.7,10.3-6.7c1.6-0.7,1.4-0.5,1.4-3.1h0.2c2.2,0.2,8,5.8,11.6,9.8c0,0,0.7,0.7,0.7,1.6
		C245.9,20,245.8,20.4,245.8,20.7z M245.8,17.5c-0.4-0.4-9.1-10-12.2-10s-11.8,9.6-12.2,10l0,0c0,0-0.9,1.1-0.9,2.1
		c0,0.9,0,1.8,0,1.8s0,0.4,0.2,0.5h0.2c0.2,0,0.2,0,0.2-0.2c0.2-0.2,9-7.9,12.5-7.9c3.5,0,12.3,7.8,12.5,7.9
		c0.2,0.2,0.2,0.2,0.2,0.2h0.2c0.2-0.2,0.2-0.5,0.2-0.5s0-0.9,0-1.8C246.6,18.5,245.8,17.5,245.8,17.5z"/>
</g>
<path class="st1" d="M284.8,20.3l-3-0.2h-0.3c0-0.3,0-0.7,0-0.9c0-6.7-5.4-12.1-12.1-12.1c-5.7,0-10.5,4-11.8,9.4h-0.3h-2.4
	c-0.1,0-0.2,0.1-0.3,0.2l-0.7,0.9v0.1c0,0.1,0.1,0.2,0.2,0.2l3,0.2h0.3c0,0.3,0,0.7,0,0.9c0,6.7,5.4,12.1,12.1,12.1
	c5.7,0,10.5-4,11.8-9.4h0.3h2.4c0.1,0,0.2-0.1,0.3-0.2l0.7-0.9v-0.1C285,20.3,285,20.3,284.8,20.3z M269.4,8.3
	c5.8,0,10.8,4.8,10.8,10.8c0,0.3,0,0.6,0,0.9l0,0l-9-0.6l3.9-2.7l0.1-0.1c0-0.1-0.1-0.2-0.2-0.2h-15.8l0,0
	C260.3,11.6,264.5,8.3,269.4,8.3z M269.4,29.7c-5.8,0-10.8-4.8-10.8-10.8c0-0.3,0-0.6,0-0.9l9,0.6l-3.9,2.7l-0.1,0.1
	c0,0.1,0.1,0.2,0.2,0.2h15.8l0,0C278.6,26.3,274.5,29.7,269.4,29.7z"/>
<g>
	<g>
		<g>
			<path d="M119.8,34c0.5-0.5,0.5-0.7-0.2-0.8v-0.3h2.3v0.3c-0.7,0.1-0.9,0.2-1.6,0.9l-1.2,1.1l1.8,2.5c0.3,0.4,0.5,0.7,1.1,0.7v0.3
				h-2.6v-0.3c0.7-0.1,0.7-0.2,0.5-0.7l-1.5-2.1l-0.7,0.6v1.6c0,0.3,0.1,0.3,0.7,0.4v0.3h-2.6v-0.3c0.7,0,1-0.1,1-0.4v-4.5
				c0-0.2-0.2-0.3-1-0.4v-0.3h2.7V33c-0.8,0-0.9,0.1-0.9,0.4v2.4L119.8,34z"/>
			<path d="M122.9,38.4c0-0.3,0.2-0.6,0.6-0.6s0.6,0.2,0.6,0.6s-0.2,0.6-0.6,0.6C123.1,39,122.9,38.7,122.9,38.4z"/>
			<path d="M129.1,33.9c-0.2-0.5-0.3-0.7-0.9-0.7v-0.3h2.5v0.3c-0.7,0.1-0.8,0.2-0.7,0.6l1.2,3.9h0.1l1.1-3.2
				c0.3-0.9,0.2-1.1-0.6-1.1v-0.3h2.2v0.3c-0.6,0.2-0.8,0.4-1.1,1.1l-1.6,4.6h-0.5l-1.3-3.9L128,39h-0.5l-1.6-5.2
				c-0.1-0.4-0.2-0.5-0.9-0.7v-0.3h2.5v0.3c-0.7,0.1-0.7,0.2-0.7,0.6l1.1,3.8h0.1l1.2-3.3L129.1,33.9z"/>
			<path d="M133.2,38.4c0-0.3,0.2-0.6,0.6-0.6c0.3,0,0.6,0.2,0.6,0.6s-0.2,0.6-0.6,0.6C133.5,39,133.2,38.7,133.2,38.4z"/>
			<path d="M137.6,38.5c0.7,0,1-0.1,1-0.4v-4.5c0-0.2-0.2-0.3-1-0.4v-0.3h2.5c1.8,0,2.4,0.7,2.4,1.5c0,0.5-0.2,1.1-1.4,1.3v0.1
				c1.1,0.1,1.7,0.8,1.7,1.4c0,1-0.7,1.7-2.5,1.7h-2.5L137.6,38.5L137.6,38.5z M140.1,35.5c1.1,0,1.4-0.4,1.4-1.1
				c0-0.7-0.2-1.1-1.4-1.1h-0.7v2.2L140.1,35.5L140.1,35.5z M140.2,38.4c1.4,0,1.6-0.6,1.6-1.3c0-0.7-0.5-1.2-1.7-1.2h-0.7v2.5
				H140.2z"/>
			<path d="M145.7,38.1c0,0.3,0.2,0.3,0.9,0.4v0.3h-2.8v-0.3c0.7,0,1-0.1,1-0.4v-4.5c0-0.2-0.2-0.3-1-0.4v-0.3h2.5
				c1.8,0,2.4,0.7,2.4,1.5c0,0.7-0.4,1.2-1.6,1.5v0.1c1.1,0.1,1.2,0.5,1.4,1.1l0.2,0.8c0.1,0.5,0.2,0.7,0.9,0.7v0.3
				c-0.1,0-0.2,0-0.3,0c-1.3,0-1.5-0.3-1.6-1.1l-0.1-0.7c-0.1-0.8-0.4-1.1-1.4-1.1h-0.7L145.7,38.1L145.7,38.1z M146.4,35.6
				c1.1,0,1.4-0.5,1.4-1.3c0-0.7-0.4-1.1-1.5-1.1h-0.7v2.4C145.6,35.6,146.4,35.6,146.4,35.6z"/>
			<path d="M151.1,37.1v-3.5c0-0.2-0.2-0.3-1-0.4v-0.3h2.7v0.3c-0.8,0-0.9,0.1-0.9,0.4v3.4c0,1.1,0.7,1.6,1.7,1.6
				c0.5,0,0.8-0.2,1.1-0.4c0.3-0.3,0.4-0.7,0.4-1.3v-2.5c0-0.8-0.2-1-1.1-1.1v-0.3h2.3v0.3c-0.8,0.2-0.9,0.2-0.9,1.1v2.8
				c0,1-0.8,1.9-2.3,1.9C152,39,151.1,38.2,151.1,37.1z"/>
			<path d="M158.2,37.1v-3.5c0-0.2-0.2-0.3-1-0.4v-0.3h2.7v0.3c-0.8,0-0.9,0.1-0.9,0.4v3.4c0,1.1,0.7,1.6,1.7,1.6
				c0.5,0,0.8-0.2,1.1-0.4c0.3-0.3,0.4-0.7,0.4-1.3v-2.5c0-0.8-0.2-1-1.1-1.1v-0.3h2.3v0.3c-0.8,0.2-0.9,0.2-0.9,1.1v2.8
				c0,1-0.8,1.9-2.3,1.9C159,39,158.2,38.2,158.2,37.1z"/>
			<path d="M165.9,33.9L165.9,33.9v3.4c0,0.8,0.1,1.1,1,1.1v0.3h-2.3v-0.3c0.8-0.2,0.9-0.3,0.9-1.2v-3.4c0-0.3-0.2-0.6-0.9-0.6v-0.3
				h1.7l3.3,4.5l0,0v-3.1c0-0.8-0.2-1-1.1-1.1v-0.3h2.3v0.3c-0.8,0.2-0.9,0.2-0.9,1.1V39h-0.4L165.9,33.9z"/>
		</g>
	</g>
	<g>
		<path d="M35.1,22.6l0.9-0.1c0,0,0.1,0,0.1-0.1v-7.9h-1c0-0.4,0-0.9,0-1.4c0.8,0,2.5-0.1,3.4-0.1c1.6,0,2.8,0,3.8,0.4
			c0.7,0.3,1.4,1.2,1.4,2.1c0,1.1-0.9,2.1-2,2.4V18c1.4,0.2,2.5,1.3,2.5,2.7c0,1.7-1.7,3.1-4.6,3.1c-0.6,0-2.1,0-2.4,0
			c-0.6,0-1.6,0-2.4,0C35.1,23.5,35.1,23,35.1,22.6z M38.8,22.1c0,0.3,0.3,0.5,0.7,0.5c1.1,0,1.9-0.6,1.9-1.6c0-0.9-0.8-1.8-2.1-1.8
			c-0.2,0-0.4,0-0.4,0L38.8,22.1z M38.9,17.7c0.1,0,0.2,0,0.4,0c1.1,0,1.8-0.7,1.8-1.6c0-0.9-0.7-1.6-1.6-1.6c-0.2,0-0.5,0-0.6,0.1
			V17.7z"/>
		<path d="M45.8,14.5c0-0.5,0-0.9,0-1.4c0.7,0,1.7,0,2.5,0s1.7,0,2.5,0c0,0.4,0,0.9,0,1.4l-1.1,0.1c0,0,0,0,0,0.1l-0.1,7.8l1.1,0.1
			c0,0.5,0,0.9,0,1.4c-0.7,0-1.6,0-2.5,0c-0.7,0-1.6,0-2.5,0c0-0.5,0-1,0-1.5h0.9c0,0,0.1,0,0.1-0.1v-7.9H45.8z"/>
		<path d="M52.2,14.5c0-0.5,0-0.9,0-1.4c0.7,0,1.6,0,2.4,0c0.7,0,1.6,0,2.5,0c0,0.4,0,0.9,0,1.4H56c0,0-0.1,0-0.1,0.1l0.1,7.6
			c0,0.3,0,0.3,0.7,0.3c0.7,0,1.1-0.1,1.3-0.2c0.2,0,0.2-0.2,0.2-0.3l0.6-1.7c0.6,0.1,1.1,0.2,1.6,0.3c-0.2,1.1-0.4,2.2-0.7,3.3
			c-0.8,0-3,0-5.3,0c-0.7,0-1.6,0-2.3,0c0-0.5,0-0.9,0-1.4h0.9c0,0,0.1,0,0.1-0.1v-7.9H52.2z"/>
		<path d="M61.4,23.1C61.4,23.1,61.5,23.1,61.4,23.1c1.2-3,2.8-7.1,3.9-10.1c0.2,0,0.6,0,0.9,0c1.1,3,2.5,7.1,3.6,10.2l1,0.1
			c0,0.2,0,0.6,0,0.7c-0.5,0-1.1,0-1.6,0c-0.7,0-1.6,0-2.2,0c0-0.2,0-0.6,0-0.8l1.3-0.1c0,0,0.1,0,0-0.1c-0.2-0.7-0.6-1.6-0.9-2.4
			c0-0.1-0.1-0.1-0.2-0.1h-3.9c-0.2,0.8-0.6,1.8-0.9,2.5l1.5,0.1c0,0.2,0,0.6,0,0.7c-0.6,0-1.4,0-2.2,0c-0.5,0-1,0-1.5,0
			c0-0.2,0-0.6,0-0.8L61.4,23.1z M65.6,14.8c-0.6,1.6-1.2,3.4-1.7,4.8c0,0.1,0,0.1,0,0.1h3.5C66.8,18.2,66.2,16.3,65.6,14.8
			L65.6,14.8z"/>
		<path d="M71.5,23.1h1.1c0,0,0.1,0,0.1-0.1v-9.1h-1.2c0-0.2,0-0.6,0-0.7c0.7,0,2.1,0,3,0c1.4,0,2.4,0.1,3.1,0.5
			c0.7,0.3,1.3,1.1,1.3,2.1c0,1.2-0.9,2.1-2.1,2.5v0.1c1.5,0.2,2.7,1.3,2.7,2.6c0,1.9-1.6,3.1-4.2,3.1c-0.4,0-1.7,0-2.1,0
			c-0.6,0-1.3,0-2,0C71.5,23.6,71.5,23.4,71.5,23.1z M74.1,22.6c0,0.5,0.3,0.6,1.4,0.6c1.3,0,2.8-0.6,2.8-2.3c0-1-0.8-2.3-3.1-2.3
			c-0.6,0-0.9,0-1,0L74.1,22.6z M74.1,17.9c0.1,0,0.4,0,0.8,0c1.5,0,2.8-0.8,2.8-2.1c0-1.1-0.8-2.1-2.6-2.1c-0.6,0-0.8,0-0.9,0.1
			L74.1,17.9L74.1,17.9z"/>
		<path d="M82.7,22.7c-0.9-0.9-1.5-2.4-1.5-4.1c0-2.1,1.1-3.9,2.4-4.8c1-0.7,2.1-0.9,3.1-0.9c1,0,2,0.2,2.8,0.8
			c1.2,0.9,2.1,2.5,2.1,4.4c0,1.7-0.6,3.4-1.7,4.6c-0.9,0.9-2,1.3-3.6,1.3C84.7,24,83.5,23.5,82.7,22.7z M88.8,22.2
			c0.7-0.7,1.2-1.9,1.2-3.7c0-1.6-0.4-2.9-1.2-3.8c-0.6-0.7-1.4-1-2.4-1c-0.9,0-1.7,0.2-2.4,0.9c-0.8,0.7-1.5,2.1-1.5,3.9
			c0,1.6,0.3,2.8,1.2,3.8c0.7,0.7,1.6,1,2.5,1C87.3,23.2,88.2,22.9,88.8,22.2z"/>
		<path d="M94.1,23.1C94.2,23.1,94.2,23.1,94.1,23.1l0.1-9.2l-1.2-0.1c0-0.2,0-0.6,0-0.7c0.7,0,1.6,0,2.4,0c1.9,2.8,4.2,6.2,6,9h0.1
			c0-2.8,0-5.4-0.1-8.2h-1.6c0-0.2,0-0.6,0-0.8c0.6,0,1.3,0,2.1,0c0.6,0,1.1,0,1.6,0c0,0.2,0,0.6,0,0.7l-1,0.1c0,0-0.1,0-0.1,0.1
			l-0.1,9.9c-0.2,0.1-0.6,0.2-0.9,0.2c-1.7-2.4-4-5.7-6.2-9h-0.1c0,2.7,0,5.3,0,8h1.6c0,0.2,0,0.6,0,0.8c-0.7,0-1.5,0-2.2,0
			c-0.6,0-1.1,0-1.6,0c0-0.2,0-0.6,0-0.8L94.1,23.1L94.1,23.1z"/>
		<path d="M106.1,23.1L106.1,23.1l0.1-9.2l-1.2-0.1c0-0.2,0-0.6,0-0.7c0.7,0,1.6,0,2.4,0c1.9,2.8,4.2,6.2,6,9h0.1
			c0-2.8,0-5.4-0.1-8.2h-1.6c0-0.2,0-0.6,0-0.8c0.6,0,1.3,0,2.1,0c0.6,0,1.1,0,1.6,0c0,0.2,0,0.6,0,0.7l-1,0.1c0,0-0.1,0-0.1,0.1
			l-0.1,9.9c-0.2,0.1-0.6,0.2-0.9,0.2c-1.7-2.4-4-5.7-6.2-9h-0.1c0,2.7,0,5.3,0,8h1.6c0,0.2,0,0.6,0,0.8c-0.7,0-1.5,0-2.2,0
			c-0.6,0-1.1,0-1.6,0c0-0.2,0-0.6,0-0.8L106.1,23.1L106.1,23.1z"/>
		<path d="M118.1,23.1C118.1,23.1,118.2,23.1,118.1,23.1l0.1-9.2l-1.2-0.1c0-0.2,0-0.6,0-0.7c0.6,0,1.3,0,2,0c0.5,0,3.3,0,3.7,0
			c0.7,0,1.1,0,1.5,0c0.1,0.8,0.2,1.6,0.2,2.5c-0.2,0-0.6,0.1-0.9,0.1l-0.2-1.5c0-0.2-0.2-0.2-0.4-0.2c-0.4-0.1-1.6-0.1-2.6-0.1
			c-0.2,0-0.4,0-0.5,0V18c0.9,0,1.7,0,2.6,0c0.2,0,0.3-0.2,0.4-0.3l0.1-0.8c0.2,0,0.6,0,0.9,0c0,0.6,0,1.1,0,1.6c0,0.5,0,1.1,0,1.6
			c-0.2,0-0.6,0-0.9,0l-0.1-0.9c0-0.2-0.2-0.3-0.4-0.3c-0.7,0-1.6,0-2.6,0v4c0,0.2,0.1,0.3,0.9,0.3c1.3,0,2.3-0.1,2.6-0.2
			c0.2,0,0.2-0.2,0.2-0.3l0.6-1.6c0.2,0.1,0.6,0.2,0.9,0.2c-0.2,0.9-0.4,1.7-0.6,2.6c-0.7,0-3,0-5.2,0c-0.7,0-1.3,0-2,0
			c0-0.2,0-0.6,0-0.8H118.1z"/>
		<path d="M126.3,13.9c0-0.2,0-0.6,0-0.8c0.9,0,2.1,0,3,0c1,2.5,2.2,5.7,3.5,8.7h0.1c1.1-2.9,2.4-6.1,3.5-8.7c0.9,0,2,0,2.8,0
			c0,0.2,0,0.6,0,0.8h-1.1c0,0-0.1,0-0.1,0.1c0,2.8,0,6.2,0,9.1l1.1,0.1c0,0.2,0,0.6,0,0.7c-0.6,0-1.2,0-1.8,0c-0.7,0-1.4,0-2,0
			c0-0.2,0-0.6,0-0.8l1.3-0.1c0.1,0,0.1,0,0.1-0.1c0-2.5,0-5.7-0.1-8.4h-0.1c-1.5,3.9-2.7,6.6-3.6,8.7c-0.2,0-0.4,0-0.7,0
			c-1.1-2.4-2.4-5.3-3.6-8.9h-0.2c0,2.7-0.1,5.8-0.1,8.5l1.5,0.1c0,0.2,0,0.6,0,0.7c-0.6,0-1.3,0-2.1,0c-0.6,0-1.1,0-1.6,0
			c0-0.2,0-0.6,0-0.8l1.1-0.1c0,0,0.1,0,0.1-0.1c0-2.8,0.1-6.4,0.1-9.1L126.3,13.9z"/>
		<path d="M142,23.1L142,23.1l0.1-9.2l-1.2-0.1c0-0.2,0-0.6,0-0.7c0.6,0,1.3,0,2,0c0.5,0,3.3,0,3.7,0c0.7,0,1.1,0,1.5,0
			c0.1,0.8,0.2,1.6,0.2,2.5c-0.2,0-0.6,0.1-0.9,0.1l-0.2-1.5c0-0.2-0.2-0.2-0.4-0.2c-0.4-0.1-1.6-0.1-2.6-0.1c-0.2,0-0.4,0-0.5,0V18
			c0.9,0,1.7,0,2.6,0c0.2,0,0.3-0.2,0.4-0.3l0.1-0.8c0.2,0,0.6,0,0.9,0c0,0.6,0,1.1,0,1.6c0,0.5,0,1.1,0,1.6c-0.2,0-0.6,0-0.9,0
			l-0.1-0.9c0-0.2-0.2-0.3-0.4-0.3c-0.7,0-1.6,0-2.6,0v4c0,0.2,0.1,0.3,0.9,0.3c1.3,0,2.3-0.1,2.6-0.2c0.2,0,0.2-0.2,0.2-0.3
			l0.6-1.6c0.2,0.1,0.6,0.2,0.9,0.2c-0.2,0.9-0.4,1.7-0.6,2.6c-0.7,0-3,0-5.2,0c-0.7,0-1.3,0-2,0c0-0.2,0-0.6,0-0.8H142z"/>
		<path d="M151.2,23.1C151.3,23.1,151.3,23.1,151.2,23.1l0.1-9.2l-1.2-0.1c0-0.2,0-0.6,0-0.7c0.7,0,1.6,0,2.4,0c1.9,2.8,4.2,6.2,6,9
			h0.1c0-2.8,0-5.4-0.1-8.2h-1.6c0-0.2,0-0.6,0-0.8c0.6,0,1.3,0,2.1,0c0.6,0,1.1,0,1.6,0c0,0.2,0,0.6,0,0.7l-1,0.1
			c0,0-0.1,0-0.1,0.1l-0.1,9.9c-0.2,0.1-0.6,0.2-0.9,0.2c-1.7-2.4-4-5.7-6.2-9h-0.1c0,2.7,0,5.3,0,8h1.6c0,0.2,0,0.6,0,0.8
			c-0.7,0-1.5,0-2.2,0c-0.6,0-1.1,0-1.6,0c0-0.2,0-0.6,0-0.8L151.2,23.1L151.2,23.1z"/>
		<path d="M165.7,23.1C165.7,23.1,165.7,23.1,165.7,23.1l0.1-9.2c-1.4,0-1.8,0-2.1,0.1c-0.3,0-0.4,0.2-0.4,0.3L163,16
			c-0.2,0-0.6-0.1-0.9-0.1c0.1-0.9,0.1-1.9,0.2-2.8c0.3,0,0.9,0,1.6,0c0.3,0,2.3,0,2.8,0c0.6,0,2.4,0,2.8,0c0.7,0,1.1,0,1.5,0
			c0.1,0.9,0.1,1.8,0.2,2.8c-0.2,0-0.6,0.1-0.9,0.1l-0.2-1.6c0-0.2-0.1-0.2-0.4-0.2c-0.5-0.1-0.7-0.1-2.2-0.1l-0.1,9.2l1.6,0.1
			c0,0.2,0,0.6,0,0.8c-0.6,0-1.4,0-2.1,0c-0.7,0-1.5,0-2.1,0c0-0.2,0-0.6,0-0.8L165.7,23.1z"/>
		<g>
			<path class="st2" d="M13.7,13.4V19c0,0.7-0.6,1.3-1.3,1.3c-0.7,0-1.3-0.6-1.3-1.3v-5.7c0-0.7,0.6-1.3,1.3-1.3
				C13.1,12.1,13.7,12.7,13.7,13.4"/>
			<path d="M22.2,19.1c0-2.7-1.1-5.1-2.8-6.8c-1.8-1.7-4.2-2.9-6.9-2.9s-5.2,1-6.9,2.7s-2.8,4.2-2.8,6.8s1.1,5.1,2.8,6.8
				s4.2,2.8,6.8,2.8s5.1-1.1,6.8-2.8C21.2,24.3,22.2,21.7,22.2,19.1 M25.8,8.4c0.5,0.5,0.5,1.3,0,1.7c-0.5,0.4-1.3,0.5-1.7,0
				l-0.5-0.5l-1.7,1.6c1.7,2.1,2.8,4.8,2.8,7.7c0,6.7-5.4,12.2-12.2,12.2C5.7,31.3,0.3,25.8,0.3,19c0-6.3,4.8-11.5,10.9-12.2V5.2
				c0-0.7,0.6-1.3,1.3-1.3c0.7,0,1.3,0.6,1.3,1.3V7c2.4,0.2,4.6,1.2,6.4,2.7L22,8l-0.5-0.5C21,7,21,6.2,21.5,5.8
				c0.5-0.4,1.3-0.5,1.7,0l1.3,1.3L25.8,8.4z"/>
		</g>
	</g>
</g>
<g>
	<g>
		<defs>
			<rect id="SVGID_1_" x="190.4" y="6.6" width="22.8" height="25.1"/>
		</defs>
		<clipPath id="SVGID_00000041992073444216136840000004373588812876968845_">
			<use xlink:href="#SVGID_1_"  style="overflow:visible;"/>
		</clipPath>
		<path style="clip-path:url(#SVGID_00000041992073444216136840000004373588812876968845_);fill:#000309;" d="M201.5,31.7
			c-3.2-1.5-6.1-4-8-7c-1.9-3-2.9-6.4-3.1-11c-0.1-1.5-0.1-3.3,0-5.6V7.6l0.4-0.1c3.6-0.6,7.2-0.9,10.9-0.9c3.6,0,7.2,0.3,10.9,0.9
			l0.4,0.1v0.5c0.1,2.3,0.1,4.1,0,5.6c-0.3,4.5-1.2,8-3.1,11s-4.7,5.5-8,7H201.5L201.5,31.7z"/>
	</g>
	<g>
		<defs>
			<rect id="SVGID_00000138562836092159279020000001125407783959301034_" x="190.4" y="6.6" width="22.8" height="25.1"/>
		</defs>
		<clipPath id="SVGID_00000158739027005519257730000017394516751744698021_">
			<use xlink:href="#SVGID_00000138562836092159279020000001125407783959301034_"  style="overflow:visible;"/>
		</clipPath>
		<path style="clip-path:url(#SVGID_00000158739027005519257730000017394516751744698021_);fill:#FFFFFF;" d="M196.8,21.8
			C196.7,21.8,196.7,21.8,196.8,21.8c-0.1-0.2-0.2-0.6-0.2-0.8c0-0.1,0-0.1,0.1-0.1c0.3-0.1,0.9-0.3,1.2-0.4c0.1,0,0.2-0.1,0.2-0.2
			c0.2-0.3,0.6-1,0.8-1.5c0-0.1,0-0.1,0-0.2l-0.1-0.2c0-0.1-0.1-0.1-0.2-0.1c-0.4-0.1-1-0.3-1.3-0.3c-0.1,0-0.1,0-0.2,0H197
			c0.4,0.2,0.8,0.3,1.2,0.4l0.1,0.1v0.2c0,0.1,0,0.1,0,0.2c-0.2,0.3-0.5,0.9-0.8,1.1c0,0.1-0.1,0.1-0.2,0.1
			c-0.3,0.1-0.7,0.3-0.9,0.3h-0.1c-0.2-0.1-0.4-0.3-0.4-0.3s0,0.3,0,0.4c0,0,0,0,0,0.1c0.1,0.1,0.2,0.3,0.2,0.4v0.1
			c0.1,0.2,0.2,0.8,0.2,0.8c0,0.1,0.1,0.1,0.2,0.1c0.1,0,0.4-0.1,0.5-0.2c0,0,0,0,0.1,0c0.1-0.1,0.3-0.2,0.3-0.2
			S196.9,21.8,196.8,21.8"/>
	</g>
	<g>
		<defs>
			<rect id="SVGID_00000176759177733796165460000007728199121962601641_" x="190.4" y="6.6" width="22.8" height="25.1"/>
		</defs>
		<clipPath id="SVGID_00000168831249084555798570000017326147253865376942_">
			<use xlink:href="#SVGID_00000176759177733796165460000007728199121962601641_"  style="overflow:visible;"/>
		</clipPath>
		<path style="clip-path:url(#SVGID_00000168831249084555798570000017326147253865376942_);fill:#FFFFFF;" d="M197.5,20
			c0.2-0.2,0.3-0.5,0.6-0.8l-1.4,1.1C196.9,20.2,197.2,20.2,197.5,20C197.5,20.1,197.5,20,197.5,20"/>
	</g>
	<g>
		<defs>
			<rect id="SVGID_00000155120089352290692490000018373341900203426434_" x="190.4" y="6.6" width="22.8" height="25.1"/>
		</defs>
		<clipPath id="SVGID_00000051366249683911531010000002470490202405542037_">
			<use xlink:href="#SVGID_00000155120089352290692490000018373341900203426434_"  style="overflow:visible;"/>
		</clipPath>
		<path style="clip-path:url(#SVGID_00000051366249683911531010000002470490202405542037_);fill:#FFFFFF;" d="M197.5,15.4h-0.3l0,0
			v0.3l0,0l0.3-0.1C197.5,15.6,197.6,15.6,197.5,15.4C197.6,15.6,197.6,15.5,197.5,15.4L197.5,15.4"/>
	</g>
	<g>
		<defs>
			<rect id="SVGID_00000153674946157063741340000008651379566434326916_" x="190.4" y="6.6" width="22.8" height="25.1"/>
		</defs>
		<clipPath id="SVGID_00000054945621240368817080000009612397766970022056_">
			<use xlink:href="#SVGID_00000153674946157063741340000008651379566434326916_"  style="overflow:visible;"/>
		</clipPath>
		<path style="clip-path:url(#SVGID_00000054945621240368817080000009612397766970022056_);fill:#FFFFFF;" d="M195.2,19.1l0.3,0.4
			l0.1-0.8C195.4,18.8,195.2,18.9,195.2,19.1"/>
	</g>
	<g>
		<defs>
			<rect id="SVGID_00000098917522844399077300000009014541836665494167_" x="190.4" y="6.6" width="22.8" height="25.1"/>
		</defs>
		<clipPath id="SVGID_00000045599967581285147010000014119130417369476779_">
			<use xlink:href="#SVGID_00000098917522844399077300000009014541836665494167_"  style="overflow:visible;"/>
		</clipPath>
		<path style="clip-path:url(#SVGID_00000045599967581285147010000014119130417369476779_);fill:#FFFFFF;" d="M207.2,19
			c-0.2-0.3-0.9-1.3-1.8-2.3l-0.1-0.1l-0.2-0.1c0,0,0.3,1.2,0.4,1.8c0,0.1,0.1,0.2,0.1,0.3c0.4,0.4,0.7,0.8,1,1
			c0.1,0.2,0.2,0.3,0.2,0.5c0.1,1,0,2.3-0.1,3c0,0.2-0.1,0.2-0.2,0.3c-0.9,0.7-2.4,2-3,2.7c-0.1,0.1-0.1,0.1-0.2,0.2
			c-0.1,0.1-0.2,0.3-0.2,0.3s-0.2-0.4-0.2-0.7c0-0.1,0-0.2,0-0.3c0.1-0.5,0.4-1.8,0.5-2c0,0,0,0,0-0.1v-0.1c-0.2,0.3-0.9,1.9-1,2.4
			c0,0.1,0,0.2,0,0.3c0.1,0.3,0.3,1,0.5,1.2c0,0,0.3-0.5,0.4-0.8c0.1-0.1,0.1-0.2,0.2-0.2c0.5-0.4,2.4-2,3.2-2.6
			c0.1-0.1,0.2-0.2,0.2-0.3c0.3-1.3,0.5-2.9,0.3-4.3C207.3,19.1,207.2,19,207.2,19"/>
	</g>
	<g>
		<defs>
			<rect id="SVGID_00000033361076881199403550000010540902343964719784_" x="190.4" y="6.6" width="22.8" height="25.1"/>
		</defs>
		<clipPath id="SVGID_00000100361531318835330000000016608983100325120677_">
			<use xlink:href="#SVGID_00000033361076881199403550000010540902343964719784_"  style="overflow:visible;"/>
		</clipPath>
		<path style="clip-path:url(#SVGID_00000100361531318835330000000016608983100325120677_);fill:#FFFFFF;" d="M203.5,15.2
			c0-0.1,0.1-0.2,0-0.2c0-0.2-0.1-0.3-0.1-0.5c0,0,0-0.1-0.1-0.1l-0.3-0.1h-0.1c-0.6,0.1-1.3,0.3-1.7,0.3c0,0-0.1,0-0.1,0.1
			l-0.2,0.3v0.1c0.1,0,0.4,0.1,0.5,0.1s0.1,0,0.1,0c0.3-0.1,0.8-0.3,1.2-0.4h0.1l0.2,0.1c0,0,0.1,0,0.1,0.1c0.1,0.1,0.1,0.2,0.1,0.3
			c0,0,0,0.1,0,0.2c-0.1,0.2-0.3,0.5-0.5,0.7c0,0-0.1,0.1,0,0.2c0.1,0.3,0.3,1,0.3,1.2c0,0,0,0.1,0.1,0.1l0.2,0.2c0,0-0.3-1-0.3-1.4
			c0-0.1,0-0.1,0-0.2C203.1,15.7,203.4,15.4,203.5,15.2"/>
	</g>
	<g>
		<defs>
			<rect id="SVGID_00000168839140172539913380000013043938626476524165_" x="190.4" y="6.6" width="22.8" height="25.1"/>
		</defs>
		<clipPath id="SVGID_00000087401939361136067520000008084948345591733136_">
			<use xlink:href="#SVGID_00000168839140172539913380000013043938626476524165_"  style="overflow:visible;"/>
		</clipPath>
		<path style="clip-path:url(#SVGID_00000087401939361136067520000008084948345591733136_);fill:#FFFFFF;" d="M209,16.1
			c0-0.1-0.1-0.1-0.1-0.2c-0.7-0.5-1.9-1.2-2.7-1.6c-0.1,0-0.2,0-0.3,0c-0.3,0.1-1,0.3-1.5,0.6c0,0,0.3,0,0.3,0c0.1,0,0.1,0,0.2,0
			c0.2-0.1,0.5-0.1,0.8-0.2c0.1,0,0.3,0,0.3,0.1c0.3,0.3,0.9,0.7,1.2,1c0.1,0.1,0.2,0.1,0.2,0.1c0.5,0.2,0.8,0.3,0.9,0.3
			c0.1,0.1,0.2,0.1,0.2,0.2c0.2,0.5,0.3,1.4,0.3,2c0,0.1,0,0.3,0,0.3c-0.2,0.4-0.5,1.1-0.8,1.5c0,0,0,0.1-0.1,0.1
			c-0.1,0.1-0.2,0.2-0.3,0.3c0,0,0,0,0,0.1c0,0.3-0.1,0.7-0.1,0.7c0.5-0.7,1-1.5,1.5-2.4c0-0.1,0.1-0.1,0.1-0.2
			C209.2,17.9,209.2,16.8,209,16.1"/>
	</g>
	<g>
		<defs>
			<rect id="SVGID_00000039817215636037687470000007867636321040567939_" x="190.4" y="6.6" width="22.8" height="25.1"/>
		</defs>
		<clipPath id="SVGID_00000021079373250715207030000003109167686703222956_">
			<use xlink:href="#SVGID_00000039817215636037687470000007867636321040567939_"  style="overflow:visible;"/>
		</clipPath>
		<path style="clip-path:url(#SVGID_00000021079373250715207030000003109167686703222956_);fill:#FFFFFF;" d="M202.1,27.7
			c-0.1-0.3-0.8-1.8-1-2.4c-0.1-0.2-0.1-0.3-0.1-0.5c0.2-1.4,0.7-3.7,0.7-4c0-0.1,0-0.1,0-0.2c0-0.1-0.1-0.5-0.1-0.5
			c-0.3,0.5-1,2.7-1.4,4c-0.1,0.3-0.1,0.3,0,0.4c0.4,1.1,1.6,3.1,1.7,3.5l-0.1-0.3C202.2,27.8,202.2,27.7,202.1,27.7"/>
	</g>
	<g>
		<defs>
			<rect id="SVGID_00000039117087079824126510000011814948694933391795_" x="190.4" y="6.6" width="22.8" height="25.1"/>
		</defs>
		<clipPath id="SVGID_00000156553421001337876540000001418076121391913403_">
			<use xlink:href="#SVGID_00000039117087079824126510000011814948694933391795_"  style="overflow:visible;"/>
		</clipPath>
		<path style="clip-path:url(#SVGID_00000156553421001337876540000001418076121391913403_);fill:#FFFFFF;" d="M201.1,27.8
			c0,0-0.3-0.2-0.3-0.2c-0.1-0.1-0.1-0.1-0.2-0.1c-0.5-0.4-2.3-2.6-2.8-3.6c-0.1-0.2-0.1-0.3-0.1-0.4c0-0.2,0.1-0.5,0.1-0.8
			c0-0.1,0.1-0.2,0.2-0.3c0.3-0.3,0.8-0.8,1-1c0.1-0.1,0.2-0.2,0.3-0.3c0.3-0.4,1-2,1.2-2.6c0-0.1,0.1-0.2,0-0.3
			c-0.1-0.3-0.3-1.2-0.3-1.2v0.3c0,0,0,0,0,0.1c0,0.1,0.1,0.6,0.1,0.9c0,0.1,0,0.1-0.1,0.2c-0.3,0.7-1.7,2.6-2.6,3.6
			c-0.1,0.1-0.1,0.2-0.2,0.3c-0.1,0.2-0.1,0.7-0.2,1.1c0,0.2,0,0.3,0.1,0.5c0.5,0.9,2.4,3,3,3.5l0.1,0.1c0.2,0.1,0.8,0.4,0.8,0.4
			L201.1,27.8L201.1,27.8"/>
	</g>
	<g>
		<defs>
			<rect id="SVGID_00000134931308260135732430000012273117753348502713_" x="190.4" y="6.6" width="22.8" height="25.1"/>
		</defs>
		<clipPath id="SVGID_00000070109392594245751720000016257614100888480446_">
			<use xlink:href="#SVGID_00000134931308260135732430000012273117753348502713_"  style="overflow:visible;"/>
		</clipPath>
		<path style="clip-path:url(#SVGID_00000070109392594245751720000016257614100888480446_);fill:#FFFFFF;" d="M198.5,15.2l1.1-0.3
			c0.1,0,0.1-0.1,0.2-0.1l0.6-1v-0.1h-0.5c-0.1,0-0.1,0-0.2,0c-0.4,0.2-1,0.4-1.5,0.6l-0.1,0.1l-0.5,0.7c0,0,0,0-0.1,0.1l-0.3,0.2
			l0,0l0,0c0,0,0.8,0,1,0C198.2,15.3,198.3,15.2,198.5,15.2"/>
	</g>
	<g>
		<defs>
			<rect id="SVGID_00000127036332366256969990000002344579150685247659_" x="190.4" y="6.6" width="22.8" height="25.1"/>
		</defs>
		<clipPath id="SVGID_00000104697605398456844090000010712791695824749967_">
			<use xlink:href="#SVGID_00000127036332366256969990000002344579150685247659_"  style="overflow:visible;"/>
		</clipPath>
		<path style="clip-path:url(#SVGID_00000104697605398456844090000010712791695824749967_);fill:#FFFFFF;" d="M200.5,12.7
			c1.4-0.1,3-0.1,3.5-0.1c0.1,0,0.1,0,0.2,0l0.3,0.1c-0.7,0-2.4,0.2-3.1,0.3h0.3c0,0,0,0,0.1,0c0.5,0,1.5-0.1,2-0.1
			c0.1,0,0.2,0,0.3,0.1c0.3,0.1,0.8,0.3,1,0.4c0.1,0.1,0.2,0.1,0.3,0.1c0.3,0,0.6,0,0.9,0.1c0.1,0,0.2,0,0.2,0.1
			c0.5,0.3,1.2,0.7,1.7,1h0.1h0.2c0,0-0.7-0.7-1-1l-0.1-0.1c-1-0.6-2-1-2.5-1.3c-0.1,0-0.2-0.1-0.3-0.1c-1.6-0.1-3.3-0.1-4.5,0
			c-0.1,0-0.2,0.1-0.2,0.1c-0.1,0.1-0.1,0.2-0.2,0.3c0,0.1-0.1,0.1-0.1,0.2c-0.3,0.2-0.6,0.5-0.9,0.7c0,0,0,0-0.1,0
			c-0.1,0.1-0.4,0.3-0.5,0.3c0,0,0,0-0.1,0l-0.1,0.2c1-0.5,2.3-1.2,2.7-1.5C200.4,12.7,200.5,12.7,200.5,12.7"/>
	</g>
	<g>
		<defs>
			<rect id="SVGID_00000021115003692598294360000018267238784783655868_" x="190.4" y="6.6" width="22.8" height="25.1"/>
		</defs>
		<clipPath id="SVGID_00000031901671576294817970000014130003797006542982_">
			<use xlink:href="#SVGID_00000021115003692598294360000018267238784783655868_"  style="overflow:visible;"/>
		</clipPath>
		<path style="clip-path:url(#SVGID_00000031901671576294817970000014130003797006542982_);fill:#FFFFFF;" d="M195.9,15.9
			L195.9,15.9c-1,0.7-1.4,1-1.7,1.2c-0.1,0.1-0.2,0.2-0.3,0.3s-0.1,0.1-0.1,0.2c0,0,0,0.1,0,0.2c0,0,0,0,0,0.1l0.1,0.1l0,0
			c0.1-0.1,0.3-0.3,0.4-0.3c0,0,0,0,0.1-0.1c0-0.1,0.1-0.1,0.1-0.2c0,0,0,0,0.1-0.1l0.2-0.1c0,0-0.1,0.3-0.1,0.4c0,0,0,0.1-0.1,0.1
			c-0.1,0.2-0.3,0.4-0.5,0.5c0,0.1,0,0.1,0,0.2c0.1,0.2,0.3,0.4,0.4,0.6c0,0.1,0.1,0.1,0.1,0.1c0.1,0,0.1,0.1,0.1,0.1
			s0.1-0.5,0.2-0.7c0-0.1,0.1-0.1,0.1-0.1c0.6-0.2,1.8-0.3,1.8-0.3c-0.2-0.2-0.6-0.6-0.7-0.7l-0.1-0.1c-0.2,0-0.7-0.1-0.7-0.1
			l0.1-0.1l0.1-0.1c0.6-0.3,1.5-0.5,2-0.8c0.1-0.1,0.2-0.1,0.3-0.2c0,0,0.1-0.1,0.2-0.2l0,0v-0.1c0,0-0.2,0.2-0.3,0.3
			s-0.1,0.1-0.3,0.1c-0.2,0.1-0.5,0.1-0.7,0.2c-0.1,0-0.1,0-0.1,0s-0.1,0-0.1-0.1h-0.1c-0.2,0-0.7,0.2-0.7,0.2l0.3-0.2
			c0,0,0,0,0.1,0c0.2-0.1,0.3-0.2,0.5-0.2c0,0,0.1,0,0.1-0.1c0-0.2,0.1-0.3,0.1-0.5c0,0,0-0.1,0.1-0.1c0.1-0.1,0.4-0.3,0.5-0.4l0,0
			l0.1-0.1c-0.3,0.2-0.8,0.4-1,0.6c-0.1,0.1-0.2,0.1-0.3,0.2l0,0C196.2,15.4,196,15.7,195.9,15.9"/>
	</g>
	<g>
		<defs>
			<rect id="SVGID_00000075161775292338670940000018226124019265094308_" x="190.4" y="6.6" width="22.8" height="25.1"/>
		</defs>
		<clipPath id="SVGID_00000103981968794659869900000012865161564395256222_">
			<use xlink:href="#SVGID_00000075161775292338670940000018226124019265094308_"  style="overflow:visible;"/>
		</clipPath>
		<path style="clip-path:url(#SVGID_00000103981968794659869900000012865161564395256222_);fill:#FFFFFF;" d="M212.3,13.8
			c-0.3,4.3-1.1,7.6-3,10.4c-1.7,2.8-4.4,5.1-7.5,6.6c-3-1.4-5.8-3.7-7.5-6.6c-1.7-2.8-2.7-6.1-3-10.4c-0.1-1.4-0.1-3.1,0-5.3
			c3.5-0.6,7-0.9,10.5-0.9c3.5,0,7,0.3,10.5,0.9C212.4,10.7,212.4,12.4,212.3,13.8 M212.7,8c-3.7-0.6-7.3-1-10.9-1
			c-3.5,0-7.1,0.3-10.9,1c-0.1,1.5-0.1,3.7,0,5.8c0.3,4.4,1.2,7.7,3,10.6c1.8,2.9,4.6,5.3,7.8,6.8c3.2-1.5,6.1-3.9,7.8-6.8
			c1.8-2.9,2.8-6.3,3-10.6C212.8,11.9,212.7,9.5,212.7,8"/>
	</g>
	<g>
		<defs>
			<rect id="SVGID_00000117645321612372994060000000805886227171702183_" x="190.4" y="6.6" width="22.8" height="25.1"/>
		</defs>
		<clipPath id="SVGID_00000164510695903994858110000018141678554994319760_">
			<use xlink:href="#SVGID_00000117645321612372994060000000805886227171702183_"  style="overflow:visible;"/>
		</clipPath>
		<path style="clip-path:url(#SVGID_00000164510695903994858110000018141678554994319760_);fill:#FFFFFF;" d="M201.4,10.7
			c-0.3,0-0.5-0.1-0.5-0.4V9.6c0-0.3,0.2-0.4,0.5-0.4c0.5,0,1,0,1.5,0v0.3c-0.5,0-1,0-1.6,0c-0.1,0-0.2,0.1-0.2,0.1v0.8
			c0,0.1,0.1,0.2,0.2,0.2c0.4,0,1,0,1.4,0V10c-0.3,0-0.5,0-0.8,0V9.8c0.3,0,0.7,0,1,0v0.9C202.3,10.7,201.9,10.7,201.4,10.7"/>
	</g>
	<g>
		<defs>
			<rect id="SVGID_00000131336286229279731190000013683051192892313736_" x="190.4" y="6.6" width="22.8" height="25.1"/>
		</defs>
		<clipPath id="SVGID_00000088823816554014637050000012237192593908107657_">
			<use xlink:href="#SVGID_00000131336286229279731190000013683051192892313736_"  style="overflow:visible;"/>
		</clipPath>
		<path style="clip-path:url(#SVGID_00000088823816554014637050000012237192593908107657_);fill:#FFFFFF;" d="M194.7,10.2
			c0,0.1-0.1,0.1-0.2,0.2c-0.4,0.1-0.9,0.1-1.4,0.2V10c0.4-0.1,0.9-0.1,1.4-0.2c0.1,0,0.2,0.1,0.2,0.1V10.2z M194.4,9.5
			c-0.5,0.1-1,0.1-1.6,0.2v1.5c0.1,0,0.2,0,0.3,0v-0.4c0.4-0.1,0.9-0.1,1.3-0.2c0.3,0,0.4-0.2,0.4-0.4V10
			C194.9,9.6,194.7,9.5,194.4,9.5"/>
	</g>
	<g>
		<defs>
			<rect id="SVGID_00000049920637405871513440000011533102425759613110_" x="190.4" y="6.6" width="22.8" height="25.1"/>
		</defs>
		<clipPath id="SVGID_00000088840943187237506650000016665450129867999131_">
			<use xlink:href="#SVGID_00000049920637405871513440000011533102425759613110_"  style="overflow:visible;"/>
		</clipPath>
		<path style="clip-path:url(#SVGID_00000088840943187237506650000016665450129867999131_);fill:#FFFFFF;" d="M197.5,9.5V9.3
			c-0.6,0-1.3,0.1-1.9,0.2v1.5c0.6-0.1,1.3-0.1,1.9-0.2v-0.2c-0.5,0-1.1,0.1-1.7,0.1v-0.3c0.5,0,1-0.1,1.5-0.1V10
			c-0.5,0-1,0.1-1.5,0.1V9.7C196.3,9.6,196.8,9.6,197.5,9.5"/>
	</g>
	<g>
		<defs>
			<rect id="SVGID_00000072974052448001321600000007920951715613796231_" x="190.4" y="6.6" width="22.8" height="25.1"/>
		</defs>
		<clipPath id="SVGID_00000132058057161108993060000007373483265164864953_">
			<use xlink:href="#SVGID_00000072974052448001321600000007920951715613796231_"  style="overflow:visible;"/>
		</clipPath>
		<path style="clip-path:url(#SVGID_00000132058057161108993060000007373483265164864953_);fill:#FFFFFF;" d="M205.5,9.5V9.3
			c-0.6,0-1.3-0.1-1.9-0.1v1.6c0.6,0,1.3,0,1.9,0.1v-0.3c-0.5,0-1.1-0.1-1.7-0.1V10c0.5,0,1,0,1.5,0.1V9.9c-0.5,0-1,0-1.5-0.1V9.4
			C204.3,9.4,204.9,9.4,205.5,9.5"/>
	</g>
	<g>
		<defs>
			<rect id="SVGID_00000069390648608403024840000005668644866828938648_" x="190.4" y="6.6" width="22.8" height="25.1"/>
		</defs>
		<clipPath id="SVGID_00000175280586008691247250000006265807765366213272_">
			<use xlink:href="#SVGID_00000069390648608403024840000005668644866828938648_"  style="overflow:visible;"/>
		</clipPath>
		<path style="clip-path:url(#SVGID_00000175280586008691247250000006265807765366213272_);fill:#FFFFFF;" d="M198.7,10.7
			c-0.3,0-0.5-0.1-0.5-0.4v-1c0.1,0,0.2,0,0.3,0v1.1c0,0.1,0.1,0.1,0.2,0.1c0.4,0,0.9,0,1.2-0.1c0.1,0,0.2-0.1,0.2-0.2v-1
			c0.1,0,0.2,0,0.3,0v1.1c0,0.3-0.2,0.4-0.5,0.4C199.3,10.7,198.9,10.7,198.7,10.7"/>
	</g>
	<g>
		<defs>
			<rect id="SVGID_00000145759704846626844960000016408890052614256262_" x="190.4" y="6.6" width="22.8" height="25.1"/>
		</defs>
		<clipPath id="SVGID_00000153692322828703657370000001816561253632480419_">
			<use xlink:href="#SVGID_00000145759704846626844960000016408890052614256262_"  style="overflow:visible;"/>
		</clipPath>
		<path style="clip-path:url(#SVGID_00000153692322828703657370000001816561253632480419_);fill:#FFFFFF;" d="M206.7,10.8
			c-0.3,0-0.5-0.1-0.5-0.4V9.7c0-0.3,0.2-0.4,0.5-0.3c0.3,0,0.7,0.1,1,0.1s0.5,0.1,0.5,0.4v0.7c0,0.3-0.2,0.4-0.5,0.3
			C207.3,10.9,206.9,10.8,206.7,10.8 M206.5,9.5c-0.1,0-0.2,0.1-0.2,0.1v0.8c0,0.1,0.1,0.2,0.2,0.2c0.4,0,0.9,0.1,1.3,0.1
			c0.1,0,0.2-0.1,0.2-0.1V9.8c0-0.1-0.1-0.2-0.2-0.2C207.4,9.6,206.9,9.6,206.5,9.5"/>
	</g>
	<g>
		<defs>
			<rect id="SVGID_00000028308916610430542110000008950949413935153027_" x="190.4" y="6.6" width="22.8" height="25.1"/>
		</defs>
		<clipPath id="SVGID_00000008831583495933222340000002736709665806839426_">
			<use xlink:href="#SVGID_00000028308916610430542110000008950949413935153027_"  style="overflow:visible;"/>
		</clipPath>
		<path style="clip-path:url(#SVGID_00000008831583495933222340000002736709665806839426_);fill:#FFFFFF;" d="M210.7,9.7
			c-0.7-0.1-1.4-0.2-2-0.3v0.3c0.3,0,0.6,0.1,0.9,0.1v1.3c0.1,0,0.2,0,0.3,0V9.9c0.3,0,0.6,0.1,0.9,0.1V9.7z"/>
	</g>
</g>
<path class="st1" d="M315.9,25.2c-0.8-0.8-4.5-4.3-5.5-7.3c-0.2-0.6-0.3-1.2-0.3-1.8c0-0.5,0.1-1,0.3-1.5c0.4-1.1,1.4-2.4,2.5-3.4
	c0.4-0.4,2.3-2.3,2.9-2.9c0.1-0.1,0.2-0.3,0.3-0.5c0-0.2,0-0.6,0-0.7l0-0.4L305,15.5c-0.1,0.1-0.3,0.3-0.4,0.5
	c-0.1-0.2-0.3-0.4-0.4-0.5l-11.2-8.7v18.7l11.2-8.7c0.1-0.1,0.3-0.3,0.4-0.5c0.1,0.2,0.2,0.3,0.2,0.4c0.8,0.8,4.5,4.3,5.5,7.3
	c0.2,0.6,0.3,1.2,0.3,1.8c0,0.5-0.1,1-0.3,1.5c-0.4,1.1-1.4,2.3-2.5,3.4c-0.4,0.4-2.3,2.3-2.9,2.9c-0.1,0.1-0.2,0.3-0.3,0.5
	c0,0.1,0,0.6,0,0.8l0,0.4l11.2-8.7c0.2-0.1,0.4-0.3,0.4-0.7C316.2,25.4,316,25.2,315.9,25.2z M298.2,20.6c-0.9,0.9-1.8,1.7-2.6,2.4
	c-0.9,0.7-1.5,1.2-2,1.6c0,0,0-0.1,0-0.1c0,0,0-0.1,0-0.2c1-0.9,4.7-3.7,5.8-6.5c0.2-0.6,0.4-1.1,0.4-1.7c0-0.6-0.1-1.1-0.4-1.7
	c-1.1-2.7-4.9-5.6-5.8-6.5c0,0,0-0.1,0-0.2c0-0.1,0-0.1,0-0.1c0.5,0.4,1.1,0.9,2,1.6c0.8,0.7,1.7,1.4,2.6,2.4c1.4,1.4,2.4,3,2.4,4.5
	C300.6,17.6,299.6,19.2,298.2,20.6z M311.1,11.7c0.9-0.9,1.2-1.2,2-1.8c0.4-0.3,0.7-0.5,0.9-0.7c0.2-0.1,0.4-0.3,0.4-0.3
	c0,0,0,0,0,0c0,0.1,0,0.2-0.1,0.3c-0.1,0.1-0.1,0.1-0.3,0.3c-1.2,1-3.4,3-4.2,5.1c-0.2,0.6-0.3,1.1-0.3,1.7c0,0.5,0.1,1.1,0.3,1.7
	c0.3,0.8,0.7,1.5,1.2,2.3c0.2,0.4,0.6,0.8,0.8,1.1c0.1,0.1,0,0.1-0.1,0c-0.1,0-0.1,0-0.2-0.1c-0.1-0.1-0.1-0.1-0.2-0.1
	c-0.1-0.1-0.2-0.1-0.3-0.2c-0.1-0.1-0.2-0.2-0.3-0.3c-1.1-1.2-2.1-2.8-2.1-4.3C308.7,14.6,309.7,13.1,311.1,11.7z M309.9,30
	c-0.9,0.9-1.1,1.1-1.9,1.8c-0.3,0.3-0.7,0.5-0.9,0.8c-0.2,0.2-0.4,0.3-0.4,0.3c0,0,0,0,0,0c0-0.1,0-0.2,0.1-0.3
	c0.1-0.1,0.1-0.1,0.3-0.3c1.2-1,3.1-3,3.9-4.9c0.2-0.6,0.3-1.1,0.3-1.7c0-0.6-0.1-1.1-0.3-1.7c-0.3-0.8-0.7-1.5-1.2-2.3
	c-0.2-0.4-0.5-0.8-0.7-1c-0.1-0.1,0.1,0,0.2,0c0.1,0,0.2,0.1,0.3,0.1c0.2,0.2,0.3,0.3,0.5,0.5c1.1,1.3,2,2.8,2,4.3
	C312,27.1,311.2,28.6,309.9,30z"/>
<g>
	<path class="st24" d="M330.3,28.3c0.9,0,1.8,0,2.7,0c0-6.4,0-12.8,0-19.1c-0.9,0-1.8,0-2.7,0C330.3,15.6,330.3,21.9,330.3,28.3z"/>
	<path class="st24" d="M342,9.2c0,0.8,0,1.5,0,2.3c0.7,0,1.4,0,2.1,0c0,5.6,0,11.2,0,16.8c0.9,0,1.8,0,2.7,0c0-5.6,0-11.2,0-16.8
		c0.7,0,1.4,0,2.1,0c0-0.8,0-1.5,0-2.3C346.6,9.2,344.3,9.2,342,9.2z"/>
	<path class="st24" d="M323.7,28.3c0.9,0,1.8,0,2.7,0c0-2.9,0-5.8,0-8.7c0.8,0,1.5,0,2.3,0c0-0.8,0-1.5,0-2.3c-0.8,0-1.5,0-2.3,0
		c0-2,0-3.9,0-5.9c1,0,2,0,3,0c0-0.8,0-1.5,0-2.3c-1.9,0-3.7,0-5.6,0C323.7,15.6,323.7,21.9,323.7,28.3z"/>
	<path class="st24" d="M342.4,25.8c0-0.8,0-1.7,0-2.5c0-0.8,0-1.7-0.1-2.5c0-0.8-0.1-1.7-0.1-2.5c-0.1-0.8-0.1-1.6-0.2-2.4
		c-0.1-0.8-0.2-1.6-0.4-2.3c-0.2-0.8-0.4-1.5-0.6-2.2c-0.2-0.7-0.5-1.4-0.9-2c-1.9,0-3.7,0-5.6,0c0,6.4,0,12.8,0,19.1
		c0.8,0,1.6,0,2.4,0c0-2.9,0-5.8,0-8.7c1,0,2,0,2.9,0c0.1,1.4,0.1,2.9,0.1,4.3c0,0.7,0,1.5,0,2.2c0,0.7,0,1.5,0,2.2
		c0.8,0,1.7,0,2.5,0c0-0.4,0-0.8,0-1.3C342.4,26.6,342.4,26.2,342.4,25.8z M336.8,17.4c0-2,0-3.9,0-5.9c0.5,0,1,0,1.5,0
		c0.6,1.7,1,3.7,1.2,5.9C338.7,17.4,337.8,17.4,336.8,17.4z"/>
</g>
</svg>
